<svg xmlns="http://www.w3.org/2000/svg" xmlns:xlink="http://www.w3.org/1999/xlink" width="500" zoomAndPan="magnify" viewBox="0 0 375 374.999991" height="500" preserveAspectRatio="xMidYMid meet" version="1.0"><defs><g/></defs><g fill="#ffffff" fill-opacity="1"><g transform="translate(12.509501, 182.485698)"><g><path d="M 18.101562 -2.164062 C 24.210938 -18.101562 49.96875 -81.375 55.386719 -94.214844 C 57.394531 -88.957031 63.199219 -74.644531 69.617188 -58.941406 L 46.566406 -3.558594 C 46.488281 -3.480469 46.488281 -3.328125 46.488281 -3.09375 C 46.410156 -2.863281 46.410156 -2.398438 46.410156 -1.703125 C 46.410156 -0.542969 47.261719 0 49.042969 0 L 103.808594 0 C 105.585938 0 106.4375 -0.542969 106.4375 -1.703125 C 106.4375 -1.933594 106.359375 -2.242188 106.28125 -2.785156 L 106.128906 -3.558594 L 83.308594 -58.867188 L 97.773438 -94.214844 C 103.113281 -81.453125 128.484375 -18.101562 134.59375 -2.164062 L 134.59375 -2.320312 C 135.214844 -0.851562 136.21875 0 137.996094 0 L 146.199219 0 C 148.054688 0 148.980469 -0.542969 148.980469 -1.703125 C 148.980469 -1.933594 148.90625 -2.242188 148.828125 -2.785156 L 148.671875 -3.558594 L 103.652344 -112.625 L 103.5 -113.246094 L 103.5 -112.78125 C 103.1875 -113.632812 102.800781 -114.792969 100.40625 -114.792969 L 95.144531 -114.792969 C 92.746094 -114.792969 92.589844 -113.785156 92.050781 -112.933594 C 92.050781 -112.703125 91.972656 -112.546875 91.742188 -112.316406 L 91.894531 -112.472656 L 76.425781 -75.417969 L 61.109375 -112.625 L 61.03125 -112.859375 C 60.488281 -113.710938 60.257812 -114.792969 57.859375 -114.792969 L 52.753906 -114.792969 C 50.355469 -114.792969 50.203125 -113.785156 49.660156 -112.933594 C 49.429688 -112.703125 49.582031 -112.546875 49.351562 -112.316406 L 49.507812 -112.472656 L 4.175781 -3.558594 C 4.101562 -3.480469 4.101562 -3.328125 4.023438 -3.09375 C 3.945312 -2.707031 3.867188 -2.242188 3.867188 -1.703125 C 3.867188 -0.542969 4.71875 0 6.496094 0 L 14.851562 0 C 16.632812 0 17.558594 -0.929688 18.101562 -2.164062 Z M 88.800781 -10.984375 L 64.046875 -10.984375 C 67.21875 -19.105469 71.707031 -30.167969 76.425781 -41.925781 Z M 60.953125 -113.246094 L 61.03125 -112.859375 C 61.03125 -112.78125 61.03125 -112.78125 61.109375 -112.78125 Z M 60.953125 -113.246094 "/></g></g></g><g fill="#ffffff" fill-opacity="1"><g transform="translate(245.867349, 182.485698)"><g><path d="M 48.34375 -104.890625 C 49.894531 -104.890625 50.976562 -105.820312 50.976562 -107.367188 L 50.976562 -114.792969 C 50.976562 -116.878906 49.894531 -117.730469 48.34375 -117.730469 C 30.089844 -116.878906 13.535156 -101.410156 13.535156 -81.222656 C 13.535156 -57.472656 35.660156 -52.289062 35.660156 -35.425781 C 35.660156 -24.058594 25.679688 -11.835938 14.308594 -10.367188 C 12.761719 -10.367188 11.679688 -9.28125 11.679688 -7.734375 L 11.679688 -0.617188 C 11.679688 1.46875 12.761719 2.320312 14.308594 2.320312 C 32.257812 1.316406 48.5 -13.613281 48.5 -33.570312 C 48.5 -58.941406 26.378906 -64.433594 26.378906 -79.519531 C 26.378906 -91.664062 36.898438 -103.421875 48.34375 -104.890625 Z M 87.253906 -104.890625 C 88.800781 -104.890625 89.882812 -105.820312 89.882812 -107.367188 L 89.882812 -114.792969 C 89.882812 -116.878906 88.800781 -117.730469 87.253906 -117.730469 C 69 -116.878906 52.445312 -101.410156 52.445312 -81.222656 C 52.445312 -57.472656 74.570312 -52.289062 74.570312 -35.425781 C 74.570312 -24.058594 64.589844 -11.835938 53.21875 -10.367188 C 51.671875 -10.367188 50.589844 -9.28125 50.589844 -7.734375 L 50.589844 -0.617188 C 50.589844 1.46875 51.671875 2.320312 53.21875 2.320312 C 71.164062 1.316406 87.410156 -13.613281 87.410156 -33.570312 C 87.410156 -58.941406 65.285156 -64.433594 65.285156 -79.519531 C 65.285156 -91.664062 75.804688 -103.421875 87.253906 -104.890625 Z M 87.253906 -104.890625 "/></g></g></g><g fill="#ffffff" fill-opacity="1"><g transform="translate(31.086827, 304.282413)"><g><path d="M 106.28125 0 C 108.140625 0 109.066406 -0.617188 109.066406 -1.933594 C 109.066406 -2.164062 108.914062 -2.550781 108.835938 -3.09375 L 108.679688 -3.867188 L 108.757812 -3.789062 C 93.828125 -39.992188 76.425781 -76.191406 61.574219 -112.472656 C 61.109375 -113.167969 61.261719 -114.871094 58.246094 -114.871094 L 57.707031 -114.871094 C 55.152344 -114.871094 54.765625 -113.632812 54.378906 -112.78125 L 6.652344 -3.789062 C 6.574219 -3.714844 6.574219 -3.558594 6.496094 -3.328125 C 6.421875 -3.09375 6.421875 -2.628906 6.421875 -1.933594 C 6.421875 -0.617188 7.347656 0 9.28125 0 Z M 57.859375 -89.960938 L 90.195312 -13.613281 L 25.292969 -13.613281 Z M 57.859375 -89.960938 "/></g></g></g><g fill="#ffffff" fill-opacity="1"><g transform="translate(154.19839, 304.282413)"><g><path d="M 12.996094 -114.792969 C 12.144531 -114.792969 11.292969 -114.484375 11.292969 -113.863281 C 11.292969 -113.476562 11.449219 -113.089844 11.757812 -112.625 L 45.636719 -55.695312 L 15.78125 -55.695312 C 14.234375 -55.695312 13.148438 -54.609375 13.148438 -53.0625 L 13.148438 -2.476562 C 13.148438 -0.851562 14 0 15.78125 0 L 23.980469 0 C 25.605469 0 26.453125 -0.851562 26.453125 -2.476562 L 26.453125 -42.542969 L 61.574219 -42.542969 C 81.609375 -42.542969 96.691406 -59.792969 96.691406 -78.4375 C 96.691406 -97.773438 81.375 -114.792969 61.261719 -114.792969 Z M 61.261719 -101.640625 C 73.640625 -101.640625 83.386719 -90.117188 83.386719 -78.589844 C 83.386719 -67.375 73.640625 -56.390625 62.039062 -55.539062 L 34.808594 -101.640625 Z M 61.261719 -101.640625 "/></g></g></g><g fill="#ffffff" fill-opacity="1"><g transform="translate(243.329006, 304.282413)"><g><path d="M 12.996094 -114.792969 C 12.144531 -114.792969 11.292969 -114.484375 11.292969 -113.863281 C 11.292969 -113.476562 11.449219 -113.089844 11.757812 -112.625 L 45.636719 -55.695312 L 15.78125 -55.695312 C 14.234375 -55.695312 13.148438 -54.609375 13.148438 -53.0625 L 13.148438 -2.476562 C 13.148438 -0.851562 14 0 15.78125 0 L 23.980469 0 C 25.605469 0 26.453125 -0.851562 26.453125 -2.476562 L 26.453125 -42.542969 L 61.574219 -42.542969 C 81.609375 -42.542969 96.691406 -59.792969 96.691406 -78.4375 C 96.691406 -97.773438 81.375 -114.792969 61.261719 -114.792969 Z M 61.261719 -101.640625 C 73.640625 -101.640625 83.386719 -90.117188 83.386719 -78.589844 C 83.386719 -67.375 73.640625 -56.390625 62.039062 -55.539062 L 34.808594 -101.640625 Z M 61.261719 -101.640625 "/></g></g></g><g fill="#ffffff" fill-opacity="1"><g transform="translate(145.439711, 182.485698)"><g><path d="M 24.90625 -112.316406 C 24.90625 -113.785156 23.4375 -114.792969 22.277344 -114.792969 L 13.769531 -114.792969 C 12.300781 -114.792969 11.449219 -113.554688 11.449219 -112.316406 L 11.449219 -45.175781 C 11.449219 -19.339844 32.644531 1.855469 58.480469 1.855469 C 84.46875 1.855469 105.664062 -17.480469 105.664062 -45.175781 L 105.664062 -112.316406 C 105.664062 -113.863281 104.117188 -114.792969 102.570312 -114.792969 L 95.144531 -114.792969 C 93.363281 -114.792969 92.359375 -113.785156 92.359375 -112.316406 L 92.359375 -47.339844 C 92.359375 -27.074219 81.609375 -10.984375 58.480469 -10.984375 C 37.128906 -10.984375 24.90625 -26.917969 24.90625 -47.339844 Z M 34.191406 -135.445312 C 34.191406 -130.183594 38.597656 -125.777344 43.859375 -125.777344 C 49.429688 -125.777344 53.605469 -130.183594 53.605469 -135.445312 C 53.605469 -140.78125 49.429688 -145.191406 43.859375 -145.191406 C 38.597656 -145.191406 34.191406 -140.78125 34.191406 -135.445312 Z M 62.964844 -135.601562 C 62.964844 -130.339844 67.375 -125.929688 72.632812 -125.929688 C 78.203125 -125.929688 82.382812 -130.339844 82.382812 -135.601562 C 82.382812 -140.9375 78.203125 -145.347656 72.632812 -145.347656 C 67.375 -145.347656 62.964844 -140.9375 62.964844 -135.601562 Z M 62.964844 -135.601562 "/></g></g></g></svg>