<svg xmlns="http://www.w3.org/2000/svg" xmlns:xlink="http://www.w3.org/1999/xlink" width="500" zoomAndPan="magnify" viewBox="0 0 375 374.999991" height="500" preserveAspectRatio="xMidYMid meet" version="1.0"><defs><g/></defs><g fill="#000000" fill-opacity="1"><g transform="translate(67.347962, 335.286993)"><g><path d="M 51.445312 -231.976562 C 51.445312 -235.011719 48.40625 -237.085938 46.011719 -237.085938 L 28.4375 -237.085938 C 25.402344 -237.085938 23.644531 -234.53125 23.644531 -231.976562 L 23.644531 -93.300781 C 23.644531 -39.941406 67.417969 3.835938 120.78125 3.835938 C 174.460938 3.835938 218.234375 -36.105469 218.234375 -93.300781 L 218.234375 -231.976562 C 218.234375 -235.171875 215.039062 -237.085938 211.84375 -237.085938 L 196.507812 -237.085938 C 192.832031 -237.085938 190.757812 -235.011719 190.757812 -231.976562 L 190.757812 -97.773438 C 190.757812 -55.917969 168.550781 -22.6875 120.78125 -22.6875 C 76.6875 -22.6875 51.445312 -55.597656 51.445312 -97.773438 Z M 70.613281 -279.746094 C 70.613281 -268.878906 79.722656 -259.773438 90.585938 -259.773438 C 102.089844 -259.773438 110.714844 -268.878906 110.714844 -279.746094 C 110.714844 -290.769531 102.089844 -299.875 90.585938 -299.875 C 79.722656 -299.875 70.613281 -290.769531 70.613281 -279.746094 Z M 130.046875 -280.0625 C 130.046875 -269.199219 139.152344 -260.09375 150.015625 -260.09375 C 161.519531 -260.09375 170.148438 -269.199219 170.148438 -280.0625 C 170.148438 -291.085938 161.519531 -300.195312 150.015625 -300.195312 C 139.152344 -300.195312 130.046875 -291.085938 130.046875 -280.0625 Z M 130.046875 -280.0625 "/></g></g></g></svg>